<svg width="12" height="11" viewBox="0 0 12 11" fill="none" xmlns="http://www.w3.org/2000/svg">
<path d="M6.77622 0.937697L7.91522 3.58403L8.16455 4.17336C8.20989 4.26403 8.32889 4.34336 8.43089 4.34336H10.1649C10.7089 4.34336 11.3549 4.7457 11.6042 5.23303C11.6892 5.40303 11.6892 5.60703 11.6042 5.77703C11.3549 6.2587 10.7032 6.66103 10.1592 6.66103H8.42522C8.32322 6.66103 8.20422 6.74036 8.15889 6.83103L6.77055 10.061C6.62322 10.418 6.17555 10.707 5.79022 10.707H5.04222C4.56055 10.707 4.32255 10.3444 4.51522 9.8967L5.73922 7.0577C5.83555 6.8367 5.71655 6.65536 5.47289 6.65536H4.84389L3.82388 6.65536C3.69355 6.65536 3.50655 6.72903 3.41589 6.8197L2.09555 8.13436C1.95955 8.27036 1.69322 8.3327 1.50055 8.27036L0.729886 8.01536C0.395553 7.91336 0.236885 7.5337 0.395553 7.22203L1.52889 5.87336C1.70455 5.66936 1.70455 5.33503 1.52889 5.13103L0.395553 3.78236C0.242552 3.4707 0.395553 3.09103 0.729886 2.9777L1.50055 2.7227C1.68755 2.66036 1.95955 2.7227 2.09555 2.8587L3.41589 4.17336C3.50655 4.2697 3.69355 4.34336 3.82388 4.34336L5.47289 4.34336C5.71655 4.34336 5.82989 4.1677 5.73922 3.94103L4.51522 1.10203C4.32255 0.654363 4.56055 0.291697 5.04222 0.291697H5.79022C6.17555 0.291697 6.62322 0.580697 6.77622 0.937697Z" fill="#F9F9FA"/>
</svg>
